<?xml version="1.0" encoding="utf-8"?>
<!-- Generator: Adobe Illustrator 23.0.4, SVG Export Plug-In . SVG Version: 6.00 Build 0)  -->
<svg version="1.1" id="Layer_1" xmlns="http://www.w3.org/2000/svg" xmlns:xlink="http://www.w3.org/1999/xlink" x="0px" y="0px"
	 viewBox="0 0 612 792" style="enable-background:new 0 0 612 792;" xml:space="preserve">
<style type="text/css">
	.st0{fill:#231F20;}
	.st1{fill:#EE2A24;}
</style>
<path class="st0" d="M304.03,587.63c-2.01-2.61-4.32-4.92-6.92-6.93c-0.73-1.32-1.75-2.35-3.07-3.07c-2.01-2.61-4.32-4.92-6.93-6.93
	c-0.73-1.32-1.75-2.35-3.07-3.07c-2.01-2.61-4.32-4.92-6.93-6.93c-0.73-1.32-1.75-2.35-3.07-3.07c-2.01-2.61-4.32-4.92-6.93-6.93
	c-0.73-1.32-1.75-2.35-3.07-3.07c-2.01-2.61-4.32-4.92-6.93-6.93c-0.73-1.32-1.75-2.35-3.07-3.07c-2.01-2.61-4.32-4.92-6.93-6.93
	c-0.73-1.32-1.75-2.35-3.07-3.07c-2.01-2.61-4.32-4.92-6.93-6.93c-0.73-1.32-1.75-2.35-3.07-3.07c-2.01-2.61-4.32-4.92-6.93-6.93
	c-0.73-1.32-1.75-2.35-3.07-3.07c-2.01-2.61-4.32-4.92-6.93-6.93c-0.73-1.32-1.75-2.35-3.07-3.07c-2.01-2.61-4.32-4.92-6.93-6.93
	c-0.73-1.32-1.75-2.35-3.07-3.07c-2.01-2.61-4.32-4.92-6.93-6.93c-0.73-1.32-1.75-2.35-3.07-3.07c-2.01-2.61-4.32-4.92-6.93-6.93
	c-0.73-1.32-1.75-2.35-3.07-3.07c-2.01-2.61-4.32-4.92-6.93-6.93c-0.73-1.32-1.75-2.35-3.07-3.07c-2.01-2.61-4.32-4.92-6.93-6.93
	c-0.73-1.32-1.75-2.35-3.07-3.07c-2.01-2.61-4.32-4.92-6.93-6.93c-0.73-1.32-1.75-2.35-3.07-3.07c-2.01-2.61-4.32-4.92-6.93-6.93
	c-0.73-1.32-1.75-2.35-3.07-3.07c-2.01-2.61-4.32-4.92-6.93-6.93c-0.73-1.32-1.75-2.35-3.07-3.07c-2.01-2.61-4.32-4.92-6.93-6.93
	c-0.73-1.32-1.75-2.35-3.07-3.07c-2.01-2.61-4.32-4.92-6.93-6.93c-0.73-1.32-1.75-2.35-3.07-3.08c-2.24-2.34-4.49-4.68-6.73-7.01
	c-1.11-1.29-2.22-2.57-3.33-3.86c-1.89-2.38-3.79-4.75-5.68-7.13c-0.43-1.18-1.03-2.23-2.12-2.93c-1.94-3.03-3.88-6.06-5.82-9.09
	c-0.53-1.47-1.09-2.92-2.31-3.99c-1.44-2.94-2.87-5.89-4.31-8.83c-0.5-1.03-1-2.06-1.5-3.09c-1.39-3.64-2.78-7.29-4.16-10.93
	c0.08-1.48-0.47-2.77-1.23-4c-0.99-4-1.98-7.99-2.97-11.99c0.11-1.42,0.05-2.81-0.85-4.02c-0.46-4.32-0.92-8.65-1.38-12.97
	c-0.19-2.02-0.38-4.03-0.57-6.05c0.15-4.69,0.3-9.38,0.45-14.07c0.12-1.97,0.24-3.94,0.35-5.9c1.05-6,2.11-12,3.16-18
	c1.04-2.22,1.79-4.52,1.9-7c3.23-8.48,6.41-16.98,10.56-25.07c2.53-4.29,5.07-8.59,7.6-12.88c10.67-14.57,23.2-27.27,38.06-37.61
	c3.92-2.31,7.83-4.62,11.75-6.93c8.1-4.15,16.6-7.33,25.08-10.56c2.47-0.11,4.78-0.85,7-1.9c6-1.05,12-2.11,18-3.16
	c1.97-0.12,3.93-0.24,5.9-0.35c5.04-0.14,10.08-0.28,15.11-0.43c1.61,0.73,3.29,0.81,5.01,0.62c3.98,0.48,7.95,0.97,11.93,1.45
	c1.49,1.09,3.28,0.84,4.95,1.07c3.67,1,7.35,2,11.02,3c1.36,0.52,2.72,1.04,4.09,1.56c3.65,1.44,7.31,2.88,10.96,4.31
	c1.02,0.54,2.03,1.08,3.05,1.62c2.87,1.48,5.73,2.96,8.6,4.44c1.46,0.89,2.93,1.79,4.39,2.68c2.62,1.74,5.25,3.47,7.87,5.21
	c1.36,1.01,2.72,2.02,4.09,3.03c2.62,2.16,5.24,4.32,7.87,6.47c1.02,0.9,2.04,1.79,3.06,2.69c1.72,2.88,3.29,3.33,6,0.65
	c9.23-9.13,20.12-16.07,31.13-22.83c3.31-1.59,6.62-3.17,9.94-4.76c7.34-2.5,14.68-5,22.02-7.5c2.33-0.53,4.66-1.06,6.99-1.59
	c5.68-0.7,11.35-1.41,17.03-2.11c1.67,0.45,3.33,0.32,4.99-0.09c4.66,0.26,9.33,0.51,13.99,0.77c1.66,0.16,3.32,0.32,4.98,0.48
	c3.97,0.72,7.94,1.43,11.91,2.15c1.61,0.41,3.22,0.83,4.83,1.24c3.76,1.09,7.52,2.18,11.29,3.26c1.27,0.53,2.53,1.06,3.8,1.59
	c2.96,1.21,5.92,2.42,8.88,3.62c1.2,1.11,2.64,1.73,4.21,2.1c2.95,1.63,5.9,3.25,8.84,4.88c1.17,1.31,2.63,2.18,4.27,2.78
	c2.52,1.76,5.03,3.53,7.55,5.29c0.88,0.7,1.76,1.39,2.63,2.09c2.62,2.24,5.23,4.47,7.85,6.71c1.02,1.59,2.39,2.82,3.97,3.82
	c1.96,2.08,3.93,4.16,5.89,6.23c0.9,1.03,1.79,2.07,2.69,3.1c2.39,3.13,4.78,6.26,7.17,9.4c0.68,0.99,1.35,1.97,2.03,2.96
	c1.95,3.22,3.91,6.43,5.86,9.65c0.19,0.74,0.21,1.58,1.07,1.95c1.44,2.97,2.87,5.94,4.31,8.9c0.21,1.52,0.77,2.89,1.78,4.06
	c1.31,3.68,2.62,7.37,3.92,11.05c0.21,1.36,0.06,2.83,1.2,3.91c0.87,4.05,1.74,8.1,2.61,12.16c0.26,1.61,0.52,3.23,0.79,4.84
	c0.48,4.34,0.96,8.67,1.44,13.01c-0.41,1.68-0.27,3.33,0.21,4.98c-0.26,5.18-0.53,10.35-0.79,15.53c-0.26,2.17-0.52,4.33-0.78,6.5
	c-1.23,6-2.46,12-3.69,18c-0.84,2.66-1.68,5.32-2.53,7.98c-3.67,9.24-7.8,18.25-12.83,26.84c-4.91,6.67-9.82,13.33-14.73,20
	c-24.72,24.72-49.45,49.44-74.17,74.17c-40.4,40.4-80.8,80.79-121.19,121.2c-1.16,1.16-2.21,2.44-3.3,3.67
	C305.68,589.08,304.98,588.02,304.03,587.63z"/>
<path class="st1" d="M104.7,246.13c-1.83,2.78-3.15,5.78-3.84,9.04c-3.22,6.66-5.11,13.7-5.96,21.04c-1.12,1.88-1.08,3.93-0.92,6
	c-1.53,5.26-1.22,10.63-1.03,16c0.04,1.67,0.07,3.34,0.11,5.01c-0.46,4.5,0.52,8.87,1.24,13.26c0.31,1.62,0.61,3.25,0.92,4.87
	c0.61,3.71,1.38,7.38,2.87,10.85c0.26,1.8,0.64,3.55,1.8,5.03c0.69,3.6,2.17,6.87,4.07,9.98c0.48,1.05,0.96,2.09,1.43,3.14
	c1.5,3.51,3.28,6.86,5.68,9.86c0.56,1.63,1.47,3.03,2.81,4.14c1.53,2.99,3.53,5.62,5.99,7.9c0.64,1.4,1.62,2.52,2.87,3.4
	c1.74,2.51,3.79,4.73,6.25,6.55c1.02,1.63,2.34,2.95,3.96,3.96c1.72,2.3,3.73,4.32,6.04,6.04c1.02,1.63,2.34,2.95,3.96,3.96
	c2.06,2.6,4.36,4.96,7.01,6.97c0.69,1.31,1.68,2.33,2.99,3.03c1.72,2.3,3.73,4.32,6.04,6.04c1.02,1.63,2.34,2.95,3.96,3.96
	c1.72,2.3,3.73,4.32,6.04,6.04c1.02,1.63,2.34,2.95,3.96,3.96c1.72,2.3,3.73,4.32,6.04,6.04c1.02,1.63,2.34,2.95,3.96,3.96
	c1.72,2.3,3.73,4.32,6.04,6.04c1.02,1.63,2.34,2.95,3.96,3.96c1.72,2.3,3.73,4.32,6.04,6.04c1.02,1.63,2.34,2.95,3.96,3.96
	c1.72,2.3,3.73,4.32,6.04,6.04c1.02,1.63,2.34,2.95,3.96,3.96c1.72,2.3,3.73,4.32,6.04,6.04c1.02,1.63,2.34,2.95,3.96,3.96
	c1.72,2.3,3.73,4.32,6.04,6.04c1.02,1.63,2.34,2.95,3.96,3.96c1.72,2.3,3.73,4.32,6.04,6.04c1.02,1.63,2.34,2.95,3.96,3.96
	c1.72,2.3,3.73,4.32,6.04,6.04c1.02,1.63,2.34,2.95,3.96,3.96c1.72,2.3,3.73,4.32,6.04,6.04c1.02,1.63,2.34,2.95,3.96,3.96
	c1.72,2.3,3.73,4.32,6.04,6.04c1.02,1.63,2.34,2.95,3.96,3.96c1.72,2.3,3.73,4.32,6.04,6.04c1.02,1.63,2.34,2.95,3.96,3.96
	c1.72,2.3,3.73,4.32,6.04,6.04c1.02,1.63,2.34,2.95,3.96,3.96c1.72,2.3,3.73,4.32,6.04,6.04c1.33,1.46,2.81,2.82,3.96,4.41
	c2.18,3,3.74,2.28,6.11-0.1c58.45-58.63,117-117.15,175.47-175.75c10.29-10.31,18.87-21.87,24.28-35.55
	c3.57-6.96,6.08-14.26,7.26-22c1.21-1.81,1.03-3.91,1.22-5.94c1.41-5.6,1.95-11.28,1.6-17.05c0.38-1.67,0.42-3.34-0.02-5.01
	c0.35-4.71,0.15-9.39-1.02-13.99c0.12-1.42,0.28-2.84-0.73-4.06c-0.22-4.52-1.27-8.85-3.03-13.02c-0.03-1.09,0.06-2.21-0.92-3
	c-0.91-4.52-2.64-8.71-4.94-12.68c-0.18-0.86-0.14-1.83-1.12-2.31c-1.33-3.92-3.44-7.4-5.9-10.69c-0.28-0.46-0.56-0.91-0.85-1.37
	c-1.65-3.3-3.76-6.28-6.37-8.9c-0.47-1.34-1.41-2.3-2.5-3.15c-2.05-3.01-4.49-5.67-7.37-7.91c-0.76-1.31-1.8-2.32-3.14-3.02
	c-2.53-3.01-5.64-5.33-8.9-7.48c-0.71-0.49-1.42-0.97-2.13-1.46c-2.93-2.71-6.32-4.72-9.88-6.47c-0.48-0.25-0.97-0.5-1.45-0.76
	c-3.64-2.42-7.46-4.47-11.69-5.66c-0.79-0.88-1.81-1.18-2.96-1.16c-3.77-2.06-7.81-3.29-12.04-3.91c-1.15-1.08-2.57-1.06-4-1.01
	c-4.18-1.53-8.51-2.16-12.95-2.19c-1.59-1-3.34-0.74-5.06-0.63c-4.66-0.46-9.32-0.58-13.98-0.04c-2.01-0.18-4.01-0.29-5.95,0.46
	c-6.57,0.53-13.01,1.67-19.14,4.21c-2.75,0.24-5.22,1.34-7.67,2.5c-19.91,7.52-36.19,20.11-50.31,35.79
	c-2.41,2.68-4.3,5.97-7.82,7.54c-0.21-0.26-0.42-0.51-0.62-0.77c-2.48-3.36-5.23-6.47-8.37-9.23c-0.53-0.6-1.05-1.2-1.58-1.8
	c-2.42-3.12-5.16-5.91-8.44-8.13c-0.77-1.21-1.73-2.2-3.09-2.75c-1.91-2.06-4.04-3.84-6.56-5.13c-1.2-1.37-2.59-2.48-4.35-3.06
	c-3-2.59-6.4-4.53-10.01-6.12c-0.88-0.83-1.85-1.49-3.11-1.6c-3.01-2.11-6.41-3.37-9.86-4.54c-0.78-0.27-1.57-0.55-2.35-0.82
	c-4.04-1.96-8.28-3.28-12.74-3.83c-1.47-1.16-3.25-0.93-4.95-1.1c-4.29-1.12-8.62-1.94-13.09-1.64c-1.67-0.04-3.34-0.08-5.01-0.11
	c-5.37-0.2-10.74-0.5-16,1.03c-2.07-0.16-4.12-0.2-6,0.92c-7.33,0.85-14.37,2.74-21.04,5.96c-3.26,0.69-6.26,2.01-9.04,3.84
	C134.46,203.66,116.41,221.72,104.7,246.13z"/>
</svg>
